# File created by Blade
# Date/Time:  Wed Jan 21 17:41:14 2015
# Frame Rate: 120.000 fps
#------------------------------------------------------
:FULLY-SPECIFIED
:DEGREES
755
root 13.132235 22.655635 -24.511531 34.615302 81.902700 -41.589168
Spine 23.953450 5.664910 -2.273049
Head -5.724842 1.195447 6.213216
LeftShoulder 15.142794 -36.029076 9.564749
LeftArm 48.063811 12.660555 -30.815108
LeftForeArm 4.496864 -0.000000 9.266134
LeftHand 4.752983 -0.000000 59.810991
LeftHandThumb1 -26.253704 0.000000 33.147579
RightShoulder 13.172475 11.249070 -28.216519
RightArm 70.933089 21.225678 50.531830
RightForeArm -21.227603 -0.000000 15.280077
RightHand 1.369472 -0.000000 -63.773556
RightHandThumb1 -24.326973 -0.000000 -32.862282
LeftUpLeg -17.093589 0.705008 -6.960654
LeftLeg 3.154738 -0.000000 -0.000000
LeftFoot -24.062983 24.623182 -14.235047
LeftToeBase -7.839328 -0.000000 0.000000
RightUpLeg -20.513884 5.412738 -2.705886
RightLeg 9.226643 -0.000000 -0.000000
RightFoot 0.407605 -16.830120 9.330823
RightToeBase -45.526667 -0.000000 0.000000
756
root 13.114957 22.636825 -24.601370 30.345412 81.228861 -45.766385
Spine 23.902589 6.276222 -1.901629
Head -6.191960 1.327531 5.534163
LeftShoulder 15.457560 -36.483961 9.257117
LeftArm 47.533554 13.378199 -30.702093
LeftForeArm 4.012856 -0.000000 9.125855
LeftHand 4.726090 -0.000000 60.371226
LeftHandThumb1 -26.253704 0.000000 33.147579
RightShoulder 13.303115 10.922510 -28.353353
RightArm 71.300656 21.282529 49.612866
RightForeArm -20.257258 0.000000 14.278853
RightHand 1.527332 -0.000000 -63.027325
RightHandThumb1 -24.326973 -0.000000 -32.862282
LeftUpLeg -16.912736 1.380270 -7.018638
LeftLeg 3.387951 -0.000000 -0.000000
LeftFoot -24.170910 24.818055 -14.078814
LeftToeBase -6.839957 -0.000000 0.000000
RightUpLeg -20.562770 6.053995 -2.641525
RightLeg 9.307976 -0.000000 -0.000000
RightFoot 0.818822 -16.595160 9.231606
RightToeBase -46.143053 -0.000000 0.000000
757
root 13.100768 22.611644 -24.683607 26.576837 80.509249 -49.394913
Spine 23.886565 6.962242 -1.530041
Head -6.719714 1.298754 4.905656
LeftShoulder 15.829121 -36.701808 8.934944
LeftArm 47.171089 13.719757 -30.743535
LeftForeArm 3.746366 -0.000000 8.803164
LeftHand 4.876932 -0.000000 60.908826
LeftHandThumb1 -26.253704 0.000000 33.147579
RightShoulder 13.428644 10.606528 -28.474380
RightArm 71.664702 21.421674 49.217494
RightForeArm -19.918191 -0.000000 13.478116
RightHand 1.638523 0.000000 -62.166823
RightHandThumb1 -24.326973 -0.000000 -32.862282
LeftUpLeg -16.713209 2.007767 -7.028139
LeftLeg 3.722298 -0.000000 -0.000000
LeftFoot -24.282301 25.179389 -13.861396
LeftToeBase -5.981049 -0.000000 0.000000
RightUpLeg -20.551498 6.804628 -2.548536
RightLeg 9.369326 -0.000000 -0.000000
RightFoot 1.142328 -16.688657 9.383606
RightToeBase -47.062460 -0.000000 0.000000
758
root 13.091973 22.580237 -24.764853 23.374585 79.814764 -52.361563
Spine 24.004136 7.600728 -1.159224
Head -7.332555 1.185202 4.391072
LeftShoulder 16.142944 -36.869101 8.660378
LeftArm 46.865080 13.834750 -31.007441
LeftForeArm 3.449765 -0.000000 8.481287
LeftHand 5.159399 -0.000000 61.441853
LeftHandThumb1 -26.253704 0.000000 33.147579
RightShoulder 13.572914 10.546817 -28.439324
RightArm 71.802130 21.497657 48.954618
RightForeArm -19.691791 0.000000 12.958774
RightHand 1.770082 -0.000000 -61.255636
RightHandThumb1 -24.326973 -0.000000 -32.862282
LeftUpLeg -16.399514 2.472693 -6.988622
LeftLeg 4.057491 -0.000000 -0.000000
LeftFoot -24.430148 25.468386 -13.945221
LeftToeBase -5.531018 -0.000000 0.000000
RightUpLeg -20.436612 7.366215 -2.385169
RightLeg 9.478784 -0.000000 -0.000000
RightFoot 1.291101 -16.630786 9.601068
RightToeBase -47.094046 -0.000000 0.000000
759
root 13.087461 22.537886 -24.840897 20.883718 79.167764 -54.565607
Spine 24.186203 8.109178 -0.871720
Head -8.030164 1.402403 3.962582
LeftShoulder 16.275850 -37.068131 8.424214
LeftArm 46.532107 13.789416 -31.501388
LeftForeArm 3.516723 -0.000000 8.316737
LeftHand 5.542883 -0.000000 61.803608
LeftHandThumb1 -26.253704 0.000000 33.147579
RightShoulder 13.660753 10.916791 -28.219564
RightArm 71.658608 21.322817 49.060703
RightForeArm -19.863443 0.000000 13.028637
RightHand 1.679448 0.000000 -60.011828
RightHandThumb1 -24.326973 -0.000000 -32.862282
LeftUpLeg -15.984885 2.771163 -6.946297
LeftLeg 4.327938 -0.000000 -0.000000
LeftFoot -24.434969 25.829879 -13.763897
LeftToeBase -5.161992 -0.000000 0.000000
RightUpLeg -20.246517 7.803546 -2.227826
RightLeg 9.617474 -0.000000 -0.000000
RightFoot 1.458979 -16.546319 9.584295
RightToeBase -46.948507 -0.000000 0.000000
760
root 13.086384 22.492152 -24.913390 18.782330 78.546588 -56.341704
Spine 24.411827 8.636806 -0.625683
Head -8.741066 1.326248 3.681168
LeftShoulder 16.404283 -37.304735 8.180250
LeftArm 46.157425 13.587989 -32.210188
LeftForeArm 4.016739 -0.000000 8.332698
LeftHand 5.729463 -0.000000 61.922844
LeftHandThumb1 -26.253704 0.000000 33.147579
RightShoulder 13.654679 11.029758 -27.771929
RightArm 71.707407 21.354979 49.358117
RightForeArm -20.119861 -0.000000 13.476908
RightHand 1.802128 -0.000000 -58.524706
RightHandThumb1 -24.326973 -0.000000 -32.862282
LeftUpLeg -15.503643 3.010463 -6.903856
LeftLeg 4.501112 -0.000000 -0.000000
LeftFoot -24.326594 26.364476 -13.628806
LeftToeBase -5.044022 -0.000000 0.000000
RightUpLeg -20.081711 7.730265 -1.949378
RightLeg 9.890683 -0.000000 -0.000000
RightFoot 1.705665 -16.107188 9.750157
RightToeBase -50.070712 -0.000000 0.000000
761
root 13.091205 22.443337 -24.979165 16.894132 77.971204 -57.937962
Spine 24.587041 9.174784 -0.375113
Head -9.438581 1.271197 3.533225
LeftShoulder 16.528315 -37.528228 7.864873
LeftArm 45.784186 13.375411 -32.921600
LeftForeArm 4.682655 -0.000000 8.571230
LeftHand 5.873310 -0.000000 61.796118
LeftHandThumb1 -26.253704 0.000000 33.147579
RightShoulder 13.521785 10.977620 -27.174164
RightArm 71.865573 21.549503 50.307607
RightForeArm -20.749223 -0.000000 14.597147
RightHand 2.204427 -0.000000 -56.703622
RightHandThumb1 -24.326973 -0.000000 -32.862282
LeftUpLeg -15.022285 3.220123 -6.828262
LeftLeg 4.598631 -0.000000 -0.000000
LeftFoot -23.924018 27.000362 -13.354039
LeftToeBase -5.289488 -0.000000 0.000000
RightUpLeg -19.727736 8.274516 -1.812433
RightLeg 9.773472 -0.000000 -0.000000
RightFoot 1.937633 -16.330704 9.786744
RightToeBase -49.830810 -0.000000 0.000000
762
root 13.100007 22.389219 -25.038885 15.301163 77.438734 -59.263746
Spine 24.724397 9.606247 -0.152783
Head -10.147478 1.696999 3.153963
LeftShoulder 16.551003 -37.766381 7.609787
LeftArm 45.295659 13.236290 -33.626825
LeftForeArm 5.293787 -0.000000 9.021281
LeftHand 6.021789 -0.000000 61.626098
LeftHandThumb1 -26.253704 0.000000 33.147579
RightShoulder 13.357487 10.720388 -26.599641
RightArm 72.106385 21.902510 51.984007
RightForeArm -21.735130 -0.000000 16.578382
RightHand 2.380722 0.000000 -54.585233
RightHandThumb1 -24.326973 -0.000000 -32.862282
LeftUpLeg -14.515700 3.495677 -6.771205
LeftLeg 4.524160 -0.000000 -0.000000
LeftFoot -23.279652 27.745987 -12.964711
LeftToeBase -5.136139 -0.000000 0.000000
RightUpLeg -19.419558 8.652294 -1.637743
RightLeg 9.771410 -0.000000 -0.000000
RightFoot 2.047462 -16.424078 9.643292
RightToeBase -46.488858 -0.000000 0.000000
763
root 13.111949 22.330556 -25.097956 14.084535 76.980949 -60.258997
Spine 24.808096 10.028424 0.030749
Head -10.889558 1.605375 3.036097
LeftShoulder 16.573725 -37.986539 7.400154
LeftArm 44.895890 13.181475 -34.284020
LeftForeArm 5.875540 -0.000000 9.467421
LeftHand 6.129005 -0.000000 61.520079
LeftHandThumb1 -26.253704 0.000000 33.147579
RightShoulder 13.088427 10.540744 -25.965180
RightArm 72.164709 22.284090 54.576199
RightForeArm -22.876079 -0.000000 19.629420
RightHand 2.567072 -0.000000 -52.251619
RightHandThumb1 -24.326973 -0.000000 -32.862282
LeftUpLeg -14.031976 3.776504 -6.756971
LeftLeg 4.342577 -0.000000 -0.000000
LeftFoot -22.186606 28.499383 -12.330597
LeftToeBase -5.388313 -0.000000 0.000000
RightUpLeg -19.214069 8.757173 -1.445284
RightLeg 9.918913 -0.000000 -0.000000
RightFoot 2.114673 -16.399107 10.157356
RightToeBase -46.481029 -0.000000 0.000000
764
root 13.125239 22.269462 -25.150174 13.148070 76.595395 -61.043280
Spine 24.751073 10.330370 0.119639
Head -11.359003 0.923299 3.211718
LeftShoulder 16.555552 -38.148069 7.316563
LeftArm 44.462231 13.176769 -34.922086
LeftForeArm 6.441870 -0.000000 9.869824
LeftHand 6.214045 -0.000000 61.608124
LeftHandThumb1 -26.253704 0.000000 33.147579
RightShoulder 12.892549 10.401379 -25.375165
RightArm 71.812955 22.499764 57.095828
RightForeArm -24.119289 -0.000000 22.989876
RightHand 2.470552 -0.000000 -50.291241
RightHandThumb1 -24.326973 -0.000000 -32.862282
LeftUpLeg -13.601479 4.116787 -6.767081
LeftLeg 4.065786 -0.000000 -0.000000
LeftFoot -20.693670 29.265052 -11.396921
LeftToeBase -5.654566 -0.000000 0.000000
RightUpLeg -19.033354 8.893961 -1.287312
RightLeg 10.012698 -0.000000 -0.000000
RightFoot 2.004031 -16.456673 9.723211
RightToeBase -45.066848 -0.000000 0.000000
765
root 13.145855 22.203074 -25.200344 12.295792 76.310563 -61.782321
Spine 24.645627 10.554455 0.258776
Head -11.804701 0.778049 3.141933
LeftShoulder 16.540818 -38.290376 7.266095
LeftArm 44.057340 13.289150 -35.521846
LeftForeArm 6.852468 0.000000 10.205126
LeftHand 6.229437 -0.000000 61.853773
LeftHandThumb1 -26.253704 0.000000 33.147579
RightShoulder 12.560644 10.203434 -24.840751
RightArm 71.328306 22.433918 59.126172
RightForeArm -25.078122 -0.000000 25.939349
RightHand 2.529713 -0.000000 -49.612194
RightHandThumb1 -24.326973 -0.000000 -32.862282
LeftUpLeg -13.193453 4.421177 -6.761619
LeftLeg 3.694528 -0.000000 -0.000000
LeftFoot -18.993417 29.971491 -10.422964
LeftToeBase -6.170593 -0.000000 0.000000
RightUpLeg -18.816395 9.082718 -1.142959
RightLeg 10.000779 -0.000000 -0.000000
RightFoot 1.958441 -16.704316 9.743574
RightToeBase -44.049464 -0.000000 0.000000
